# xmcd
#
# Track frame offsets: 
#        150
#        15725
#        27926
#        43095
#        63833
#        82770
#        93296
#        107958
#        123922
#        140545
#        159556
#        168780
#        186060
#        204879
#
# Disc length: 2812 seconds
#
# Revision: 0
# Processed by: cddbd v1.5.2PL0 Copyright (c) Steve Scherf et al.
# Submitted via: ExactAudioCopy v0.99pb5
#
DISCID=a80afa0e
DTITLE=Magnolia Electric Co. - Josephine
DYEAR=2009
DGENRE=Country
TTITLE0=O! Grace
TTITLE1=The Rock of Ages
TTITLE2=Josephine
TTITLE3=Shenandoah
TTITLE4=Whip-poor-will
TTITLE5=Song for Willie
TTITLE6=Hope Dies Last
TTITLE7=The Handing Down
TTITLE8=Map of the Falling Sky
TTITLE9=Little Sad Eyes
TTITLE10=Heartbreak at Ten Paces
TTITLE11=Knoxville Girl
TTITLE12=Shiloh
TTITLE13=An Arrow in the Gale
EXTD=
EXTT0=
EXTT1=
EXTT2=
EXTT3=
EXTT4=
EXTT5=
EXTT6=
EXTT7=
EXTT8=
EXTT9=
EXTT10=
EXTT11=
EXTT12=
EXTT13=
PLAYORDER=
